<?xml version="1.0" encoding="utf-8"?>
<!-- Generator: Adobe Illustrator 16.0.0, SVG Export Plug-In . SVG Version: 6.00 Build 0)  -->
<!DOCTYPE svg PUBLIC "-//W3C//DTD SVG 1.1//EN" "http://www.w3.org/Graphics/SVG/1.1/DTD/svg11.dtd">
<svg version="1.1" id="Layer_1" xmlns="http://www.w3.org/2000/svg" xmlns:xlink="http://www.w3.org/1999/xlink" x="0px" y="0px"
	 width="238.576px" height="28.061px" viewBox="0 0 238.576 28.061" enable-background="new 0 0 238.576 28.061"
	 xml:space="preserve">
<g>
	<path fill="#030303" d="M18.37,7.794c-0.351-0.563-0.789-1.057-1.314-1.483c-0.526-0.425-1.122-0.757-1.785-0.996
		c-0.664-0.238-1.358-0.357-2.084-0.357c-1.328,0-2.455,0.257-3.381,0.771C8.878,6.243,8.126,6.931,7.551,7.794
		c-0.576,0.864-0.995,1.848-1.258,2.949c-0.263,1.102-0.395,2.242-0.395,3.418c0,1.128,0.132,2.223,0.395,3.288
		c0.263,1.064,0.682,2.022,1.258,2.873c0.576,0.852,1.327,1.536,2.254,2.047c0.926,0.514,2.053,0.771,3.381,0.771
		c1.803,0,3.212-0.551,4.226-1.652c1.015-1.103,1.635-2.556,1.86-4.359h5.71c-0.151,1.678-0.539,3.192-1.165,4.544
		c-0.626,1.354-1.453,2.504-2.479,3.457c-1.027,0.953-2.229,1.68-3.606,2.178c-1.377,0.502-2.892,0.752-4.545,0.752
		c-2.054,0-3.901-0.355-5.541-1.07c-1.641-0.715-3.024-1.697-4.151-2.949c-1.127-1.25-1.991-2.723-2.592-4.413
		C0.301,17.938,0,16.115,0,14.162c0-2.002,0.301-3.862,0.902-5.578c0.601-1.715,1.465-3.212,2.592-4.489s2.51-2.278,4.151-3.005
		C9.285,0.363,11.132,0,13.186,0c1.478,0,2.874,0.213,4.188,0.639c1.315,0.426,2.492,1.046,3.531,1.859
		c1.039,0.814,1.897,1.822,2.573,3.024c0.676,1.202,1.102,2.58,1.277,4.133h-5.709C18.945,8.978,18.72,8.358,18.37,7.794z"/>
	<path fill="#030303" d="M27.799,8.584c0.601-1.715,1.465-3.212,2.592-4.489c1.127-1.277,2.51-2.278,4.151-3.005
		C36.182,0.363,38.029,0,40.083,0c2.078,0,3.932,0.363,5.56,1.089c1.627,0.727,3.005,1.728,4.132,3.005
		c1.127,1.277,1.991,2.774,2.592,4.489c0.601,1.715,0.901,3.576,0.901,5.578c0,1.954-0.3,3.776-0.901,5.467
		c-0.601,1.69-1.465,3.163-2.592,4.413c-1.127,1.252-2.504,2.234-4.132,2.949c-1.628,0.715-3.482,1.07-5.56,1.07
		c-2.054,0-3.9-0.355-5.541-1.07c-1.641-0.715-3.024-1.697-4.151-2.949c-1.127-1.25-1.991-2.723-2.592-4.413
		c-0.601-1.691-0.902-3.514-0.902-5.467C26.897,12.16,27.198,10.299,27.799,8.584z M33.189,17.449
		c0.263,1.064,0.682,2.022,1.258,2.873c0.576,0.852,1.327,1.536,2.254,2.047c0.927,0.514,2.053,0.771,3.381,0.771
		c1.327,0,2.454-0.258,3.381-0.771c0.926-0.512,1.677-1.195,2.253-2.047c0.576-0.851,0.996-1.809,1.259-2.873
		c0.263-1.064,0.395-2.159,0.395-3.288c0-1.176-0.131-2.316-0.395-3.418c-0.263-1.102-0.683-2.085-1.259-2.949
		c-0.576-0.864-1.328-1.552-2.253-2.065c-0.927-0.514-2.054-0.771-3.381-0.771c-1.328,0-2.454,0.257-3.381,0.771
		c-0.927,0.514-1.678,1.202-2.254,2.065c-0.576,0.864-0.996,1.848-1.258,2.949c-0.263,1.102-0.395,2.242-0.395,3.418
		C32.795,15.29,32.926,16.385,33.189,17.449z"/>
	<path fill="#030303" d="M62.209,0.639l11.194,17.994h0.076V0.639h5.522v26.821h-5.898L61.946,9.504H61.87v17.956h-5.521V0.639
		H62.209z"/>
	<path fill="#030303" d="M87.754,20.848c0.325,0.627,0.757,1.135,1.296,1.522c0.538,0.389,1.17,0.678,1.897,0.865
		c0.726,0.188,1.478,0.281,2.254,0.281c0.525,0,1.09-0.043,1.691-0.131s1.164-0.258,1.69-0.508c0.526-0.25,0.963-0.596,1.314-1.033
		c0.35-0.438,0.526-0.997,0.526-1.672c0-0.726-0.231-1.314-0.695-1.765c-0.463-0.45-1.071-0.827-1.821-1.127
		c-0.751-0.301-1.603-0.563-2.555-0.788c-0.952-0.227-1.916-0.477-2.893-0.752c-1.002-0.25-1.979-0.557-2.93-0.92
		c-0.953-0.363-1.804-0.833-2.555-1.409c-0.751-0.576-1.359-1.295-1.822-2.159c-0.464-0.864-0.696-1.91-0.696-3.137
		c0-1.376,0.294-2.573,0.883-3.587s1.358-1.86,2.311-2.536c0.951-0.676,2.028-1.176,3.23-1.503C90.083,0.163,91.285,0,92.487,0
		c1.402,0,2.748,0.156,4.038,0.47c1.291,0.313,2.436,0.82,3.438,1.521c1.001,0.702,1.797,1.597,2.385,2.686
		c0.588,1.089,0.882,2.411,0.882,3.963h-5.708c-0.051-0.801-0.22-1.465-0.508-1.991s-0.67-0.939-1.146-1.24s-1.02-0.513-1.633-0.638
		c-0.615-0.125-1.285-0.188-2.01-0.188c-0.476,0-0.953,0.05-1.427,0.151c-0.477,0.1-0.908,0.275-1.296,0.525
		c-0.388,0.25-0.708,0.563-0.958,0.939c-0.25,0.375-0.375,0.852-0.375,1.427c0,0.526,0.1,0.953,0.301,1.277
		c0.2,0.326,0.594,0.626,1.183,0.901c0.588,0.276,1.402,0.551,2.441,0.827c1.039,0.275,2.398,0.626,4.076,1.051
		c0.5,0.101,1.195,0.282,2.085,0.545c0.889,0.263,1.772,0.683,2.648,1.258c0.876,0.576,1.635,1.346,2.272,2.311
		c0.639,0.964,0.958,2.197,0.958,3.7c0,1.227-0.238,2.367-0.713,3.419c-0.476,1.051-1.183,1.959-2.123,2.721
		c-0.939,0.766-2.103,1.359-3.494,1.785c-1.39,0.426-2.999,0.639-4.827,0.639c-1.478,0-2.911-0.182-4.302-0.543
		c-1.389-0.363-2.617-0.934-3.681-1.711c-1.065-0.775-1.911-1.766-2.536-2.967c-0.626-1.203-0.926-2.629-0.901-4.283h5.709
		C87.265,19.46,87.428,20.224,87.754,20.848z"/>
	<path fill="#030303" d="M104.583,5.598V0.639h21.976v4.959h-8.039v21.862h-5.898V5.598H104.583z"/>
	<path fill="#030303" d="M143.162,0.639c1.201,0,2.285,0.194,3.25,0.582c0.963,0.389,1.789,0.921,2.479,1.597
		c0.689,0.676,1.215,1.459,1.578,2.348c0.363,0.89,0.545,1.848,0.545,2.874c0,1.579-0.332,2.943-0.996,4.095
		c-0.664,1.153-1.746,2.028-3.248,2.63v0.075c0.725,0.201,1.326,0.508,1.803,0.921c0.475,0.413,0.863,0.902,1.164,1.464
		c0.301,0.563,0.52,1.184,0.656,1.86c0.139,0.676,0.23,1.351,0.283,2.028c0.025,0.426,0.049,0.926,0.074,1.502
		s0.068,1.164,0.133,1.766c0.062,0.602,0.162,1.172,0.301,1.711c0.137,0.537,0.344,0.996,0.619,1.369h-5.898
		c-0.326-0.85-0.525-1.863-0.602-3.041c-0.074-1.178-0.188-2.305-0.338-3.383c-0.199-1.401-0.625-2.428-1.275-3.079
		c-0.654-0.651-1.717-0.978-3.193-0.978h-5.9v10.48h-5.896V0.639H143.162z M141.059,12.772c1.354,0,2.367-0.301,3.043-0.901
		c0.676-0.602,1.014-1.578,1.014-2.931c0-1.301-0.338-2.247-1.014-2.836c-0.676-0.588-1.689-0.883-3.043-0.883h-6.463v7.551H141.059
		z"/>
	<path fill="#030303" d="M174.604,25.415c-2.027,1.764-4.834,2.646-8.414,2.646c-3.631,0-6.443-0.877-8.434-2.629
		c-1.992-1.754-2.986-4.458-2.986-8.114V0.639h5.896v16.68c0,0.727,0.062,1.439,0.188,2.142c0.125,0.701,0.389,1.32,0.791,1.859
		c0.398,0.539,0.957,0.977,1.672,1.314c0.713,0.338,1.672,0.508,2.873,0.508c2.104,0,3.555-0.471,4.357-1.41
		c0.801-0.939,1.201-2.409,1.201-4.413V0.639h5.898v16.68C177.646,20.949,176.633,23.647,174.604,25.415z"/>
	<path fill="#030303" d="M198.984,7.794c-0.352-0.563-0.789-1.057-1.316-1.483c-0.525-0.425-1.119-0.757-1.783-0.996
		c-0.664-0.238-1.359-0.357-2.084-0.357c-1.328,0-2.455,0.257-3.381,0.771c-0.928,0.514-1.68,1.202-2.256,2.065
		c-0.576,0.864-0.994,1.848-1.258,2.949c-0.264,1.102-0.395,2.242-0.395,3.418c0,1.128,0.131,2.223,0.395,3.288
		s0.682,2.022,1.258,2.873c0.576,0.852,1.328,1.536,2.256,2.047c0.926,0.514,2.053,0.771,3.381,0.771
		c1.803,0,3.211-0.551,4.225-1.652c1.016-1.103,1.635-2.556,1.859-4.359h5.709c-0.148,1.678-0.537,3.192-1.162,4.544
		c-0.627,1.354-1.453,2.504-2.48,3.457s-2.229,1.68-3.605,2.178c-1.377,0.502-2.893,0.752-4.545,0.752
		c-2.055,0-3.902-0.355-5.541-1.07c-1.641-0.715-3.025-1.697-4.152-2.949c-1.127-1.25-1.992-2.723-2.592-4.413
		c-0.602-1.691-0.902-3.514-0.902-5.467c0-2.002,0.301-3.862,0.902-5.578c0.6-1.715,1.465-3.212,2.592-4.489
		s2.512-2.278,4.152-3.005C189.898,0.363,191.746,0,193.801,0c1.477,0,2.873,0.213,4.188,0.639c1.314,0.426,2.492,1.046,3.531,1.859
		c1.039,0.814,1.896,1.822,2.572,3.024c0.678,1.202,1.104,2.58,1.277,4.133h-5.709C199.561,8.978,199.334,8.358,198.984,7.794z"/>
	<path fill="#030303" d="M206.572,5.598V0.639h21.975v4.959h-8.037v21.862h-5.898V5.598H206.572z"/>
	<path fill="#030303" d="M238.576,3.673c0,0.491-0.086,0.938-0.258,1.341c-0.172,0.403-0.406,0.749-0.701,1.034
		c-0.295,0.287-0.639,0.509-1.025,0.666c-0.389,0.158-0.797,0.237-1.223,0.237c-0.475,0-0.906-0.083-1.303-0.249
		c-0.395-0.167-0.732-0.396-1.016-0.688s-0.506-0.639-0.666-1.039c-0.162-0.4-0.242-0.833-0.242-1.302
		c0-0.49,0.086-0.938,0.258-1.341c0.174-0.403,0.406-0.748,0.703-1.034c0.295-0.286,0.639-0.509,1.029-0.666
		c0.393-0.158,0.803-0.236,1.236-0.236c0.426,0,0.834,0.079,1.223,0.236c0.387,0.157,0.73,0.38,1.025,0.666
		c0.295,0.287,0.529,0.631,0.701,1.034S238.576,3.183,238.576,3.673z M237.875,3.673c0-0.397-0.062-0.762-0.191-1.095
		c-0.129-0.333-0.307-0.62-0.537-0.859c-0.227-0.239-0.492-0.425-0.797-0.557c-0.303-0.132-0.631-0.198-0.98-0.198
		c-0.357,0-0.689,0.065-0.994,0.198c-0.309,0.131-0.574,0.317-0.803,0.557s-0.406,0.525-0.535,0.859
		c-0.129,0.333-0.193,0.698-0.193,1.095c0,0.375,0.059,0.725,0.176,1.053c0.117,0.327,0.285,0.613,0.504,0.858
		c0.219,0.245,0.484,0.44,0.793,0.583c0.311,0.143,0.66,0.214,1.053,0.214c0.35,0,0.678-0.065,0.98-0.197
		c0.305-0.131,0.57-0.317,0.797-0.557c0.23-0.24,0.408-0.524,0.537-0.855C237.812,4.443,237.875,4.076,237.875,3.673z
		 M234.721,5.549h-0.596V1.92h1.375c0.439,0,0.768,0.082,0.99,0.245s0.334,0.429,0.334,0.798c0,0.327-0.092,0.566-0.271,0.719
		c-0.182,0.152-0.406,0.242-0.676,0.271l1.018,1.595h-0.676l-0.938-1.551h-0.561V5.549z M235.387,3.489
		c0.109,0,0.217-0.004,0.32-0.013c0.102-0.009,0.189-0.034,0.268-0.074c0.074-0.041,0.137-0.098,0.182-0.171
		c0.049-0.073,0.07-0.177,0.07-0.311c0-0.111-0.023-0.198-0.074-0.263c-0.049-0.064-0.111-0.114-0.188-0.149
		s-0.16-0.057-0.254-0.065c-0.094-0.009-0.184-0.013-0.271-0.013h-0.719v1.06H235.387z"/>
</g>
</svg>
